<?xml version="1.0" standalone="no"?>
<svg
  width="600"
  height="600"
  viewBox="0 0 600 600"
  xmlns="http://www.w3.org/2000/svg"
>
  <g transform="translate(300,300)">
    <path d="M106.2,-164.9C116.1,-139.1,87.5,-79.1,89.2,-37.5C91,4,123,27.2,141.3,69.1C159.6,111,164.1,171.6,138.3,189C112.5,206.5,56.2,180.7,16.3,158.3C-23.7,136,-47.4,116.9,-88.5,104.4C-129.5,91.9,-187.9,86,-220.5,55.3C-253,24.5,-259.6,-31,-243.5,-78.6C-227.3,-126.2,-188.3,-165.8,-143.9,-180.4C-99.5,-195,-49.8,-184.5,-0.8,-183.4C48.2,-182.3,96.4,-190.7,106.2,-164.9Z" fill="#083aa4" />
  </g>
</svg>
  