<?xml version="1.0" standalone="no"?>
<svg
  width="600"
  height="600"
  viewBox="0 0 600 600"
  xmlns="http://www.w3.org/2000/svg"
>
  <g transform="translate(300,300)">
    <path d="M141.4,-170.2C165.9,-148,156.3,-87,166.3,-29.4C176.3,28.1,206,82,192.7,117.2C179.5,152.4,123.4,168.7,74.9,171.5C26.4,174.2,-14.5,163.2,-64.2,154.6C-114,146,-172.6,139.7,-208,106.5C-243.4,73.3,-255.7,13,-234.4,-29.8C-213.1,-72.6,-158.3,-98,-113.6,-116.6C-69,-135.2,-34.5,-147.1,12,-161.4C58.5,-175.7,117,-192.4,141.4,-170.2Z" fill="#ffffff" />
  </g>
</svg>
  