<?xml version="1.0" standalone="no"?>
<svg
  width="600"
  height="600"
  viewBox="0 0 600 600"
  xmlns="http://www.w3.org/2000/svg"
>
  <g transform="translate(300,300)">
    <path d="M137.4,-177.7C166.7,-139.1,171.5,-85.1,186.1,-28.9C200.7,27.3,225,85.6,207.3,122.9C189.6,160.2,129.9,176.4,80,175.1C30.2,173.8,-9.7,155,-48.8,138.8C-87.9,122.5,-126.2,108.8,-158.7,78.9C-191.1,49,-217.7,3,-199.6,-24C-181.5,-50.9,-118.7,-58.8,-78,-95.4C-37.3,-132.1,-18.6,-197.5,17.7,-218.6C54,-239.7,108,-216.4,137.4,-177.7Z" fill="#3366ff" />
  </g>
</svg>
  
