<svg width="1024" height="1024" xmlns="http://www.w3.org/2000/svg">
 <!-- Created with Method Draw - http://github.com/duopixel/Method-Draw/ -->

 <g>
  <title>background</title>
  <g id="canvasGrid" display="none">
   <rect id="svg_1" width="576" height="400" x="1" y="1" stroke-width="0" fill="url(#gridpattern)"/>
  </g>
 </g>
 <g>
  <title>Layer 1</title>
  <g id="svg_10" stroke="null">
   <g id="svg_4" transform="matrix(1.928339968388006,0,0,1.928339968388006,-2067.926547859319,-1527.9408759921587) " stroke="null">
    <path d="m1149.84408,865.08293a5.45,5.45 0 0 1 -2,4.29a6.93,6.93 0 0 1 -4.67,1.76a6.07,6.07 0 0 1 -5.72,-3.85l-4.1,-9.16a9.45,9.45 0 0 0 -8.66,-5.54l-26.49,0a9.44,9.44 0 0 0 -8.61,5.58l-4.1,9.16a6.34,6.34 0 0 1 -2.42,2.92a6.5,6.5 0 0 1 -3.41,0.93a7,7 0 0 1 -4.62,-1.76a5.38,5.38 0 0 1 -2.05,-4.33a6.77,6.77 0 0 1 0.66,-2.86l30.34,-65.23a7.09,7.09 0 0 1 3,-3.35a8.72,8.72 0 0 1 8.69,0a7.06,7.06 0 0 1 3,3.35l30.47,65.23a6.77,6.77 0 0 1 0.69,2.86zm-38.39,-23.5l0,0a9.44,9.44 0 0 0 8.62,-13.27l0,0a9.43,9.43 0 0 0 -17.24,0l0,0a9.43,9.43 0 0 0 8.62,13.27z" id="svg_6" stroke="null" fill="#3366ff"/>
   </g>
  </g>
 </g>
</svg>
